<mxfile host="app.diagrams.net" modified="2021-10-19T11:32:53.927Z" agent="5.0 (Windows NT 10.0; Win64; x64) AppleWebKit/537.36 (KHTML, like Gecko) Chrome/94.0.4606.71 Safari/537.36" etag="YAPVjteXMJdLXqOGdkN4" version="15.5.5" type="github">
  <diagram id="jsKBmcw9XDLF36DNfqzG" name="Page-1">
    <mxGraphModel dx="1102" dy="582" grid="1" gridSize="10" guides="1" tooltips="1" connect="1" arrows="1" fold="1" page="1" pageScale="1" pageWidth="827" pageHeight="1169" math="0" shadow="0">
      <root>
        <mxCell id="0" />
        <mxCell id="1" parent="0" />
        <mxCell id="xqfS3pqLxpIEDJ5l6RaL-1" value="HEADER" style="shape=table;startSize=100;container=1;collapsible=0;childLayout=tableLayout;fixedRows=1;rowLines=0;fontStyle=1;align=center;pointerEvents=1;fillColor=#f5f5f5;strokeColor=#666666;fontColor=#333333;" vertex="1" parent="1">
          <mxGeometry x="160" y="40" width="520" height="440" as="geometry" />
        </mxCell>
        <mxCell id="xqfS3pqLxpIEDJ5l6RaL-2" value="" style="shape=partialRectangle;html=1;whiteSpace=wrap;collapsible=0;dropTarget=0;pointerEvents=1;fillColor=none;top=0;left=0;bottom=1;right=0;points=[[0,0.5],[1,0.5]];portConstraint=eastwest;" vertex="1" parent="xqfS3pqLxpIEDJ5l6RaL-1">
          <mxGeometry y="100" width="520" height="30" as="geometry" />
        </mxCell>
        <mxCell id="xqfS3pqLxpIEDJ5l6RaL-3" value="" style="shape=partialRectangle;html=1;whiteSpace=wrap;connectable=0;fillColor=none;top=0;left=0;bottom=0;right=0;overflow=hidden;pointerEvents=1;" vertex="1" parent="xqfS3pqLxpIEDJ5l6RaL-2">
          <mxGeometry width="115" height="30" as="geometry">
            <mxRectangle width="115" height="30" as="alternateBounds" />
          </mxGeometry>
        </mxCell>
        <mxCell id="xqfS3pqLxpIEDJ5l6RaL-4" value="NAV" style="shape=partialRectangle;html=1;whiteSpace=wrap;connectable=0;fillColor=#dae8fc;top=0;left=0;bottom=0;right=0;align=left;spacingLeft=6;overflow=hidden;pointerEvents=1;strokeColor=#6c8ebf;" vertex="1" parent="xqfS3pqLxpIEDJ5l6RaL-2">
          <mxGeometry x="115" width="405" height="30" as="geometry">
            <mxRectangle width="405" height="30" as="alternateBounds" />
          </mxGeometry>
        </mxCell>
        <mxCell id="xqfS3pqLxpIEDJ5l6RaL-5" value="" style="shape=partialRectangle;html=1;whiteSpace=wrap;collapsible=0;dropTarget=0;pointerEvents=1;fillColor=none;top=0;left=0;bottom=0;right=0;points=[[0,0.5],[1,0.5]];portConstraint=eastwest;" vertex="1" parent="xqfS3pqLxpIEDJ5l6RaL-1">
          <mxGeometry y="130" width="520" height="30" as="geometry" />
        </mxCell>
        <mxCell id="xqfS3pqLxpIEDJ5l6RaL-6" value="" style="shape=partialRectangle;html=1;whiteSpace=wrap;connectable=0;fillColor=none;top=0;left=0;bottom=0;right=0;overflow=hidden;pointerEvents=1;" vertex="1" parent="xqfS3pqLxpIEDJ5l6RaL-5">
          <mxGeometry width="115" height="30" as="geometry">
            <mxRectangle width="115" height="30" as="alternateBounds" />
          </mxGeometry>
        </mxCell>
        <mxCell id="xqfS3pqLxpIEDJ5l6RaL-7" value="" style="shape=partialRectangle;html=1;whiteSpace=wrap;connectable=0;fillColor=none;top=0;left=0;bottom=0;right=0;align=left;spacingLeft=6;overflow=hidden;pointerEvents=1;" vertex="1" parent="xqfS3pqLxpIEDJ5l6RaL-5">
          <mxGeometry x="115" width="405" height="30" as="geometry">
            <mxRectangle width="405" height="30" as="alternateBounds" />
          </mxGeometry>
        </mxCell>
        <mxCell id="xqfS3pqLxpIEDJ5l6RaL-8" value="" style="shape=partialRectangle;html=1;whiteSpace=wrap;collapsible=0;dropTarget=0;pointerEvents=1;fillColor=none;top=0;left=0;bottom=0;right=0;points=[[0,0.5],[1,0.5]];portConstraint=eastwest;" vertex="1" parent="xqfS3pqLxpIEDJ5l6RaL-1">
          <mxGeometry y="160" width="520" height="30" as="geometry" />
        </mxCell>
        <mxCell id="xqfS3pqLxpIEDJ5l6RaL-9" value="CATEGORIAS" style="shape=partialRectangle;html=1;whiteSpace=wrap;connectable=0;fillColor=none;top=0;left=0;bottom=0;right=0;overflow=hidden;pointerEvents=1;" vertex="1" parent="xqfS3pqLxpIEDJ5l6RaL-8">
          <mxGeometry width="115" height="30" as="geometry">
            <mxRectangle width="115" height="30" as="alternateBounds" />
          </mxGeometry>
        </mxCell>
        <mxCell id="xqfS3pqLxpIEDJ5l6RaL-10" value="LISTADOS" style="shape=partialRectangle;html=1;whiteSpace=wrap;connectable=0;fillColor=none;top=0;left=0;bottom=0;right=0;align=left;spacingLeft=6;overflow=hidden;pointerEvents=1;" vertex="1" parent="xqfS3pqLxpIEDJ5l6RaL-8">
          <mxGeometry x="115" width="405" height="30" as="geometry">
            <mxRectangle width="405" height="30" as="alternateBounds" />
          </mxGeometry>
        </mxCell>
        <mxCell id="xqfS3pqLxpIEDJ5l6RaL-14" value="" style="verticalLabelPosition=bottom;verticalAlign=top;html=1;shape=mxgraph.basic.rect;fillColor2=none;strokeWidth=1;size=20;indent=5;fillColor=#f5f5f5;fontColor=#333333;strokeColor=#666666;" vertex="1" parent="1">
          <mxGeometry x="80" y="40" width="80" height="440" as="geometry" />
        </mxCell>
        <mxCell id="xqfS3pqLxpIEDJ5l6RaL-15" value="" style="verticalLabelPosition=bottom;verticalAlign=top;html=1;shape=mxgraph.basic.rect;fillColor2=none;strokeWidth=1;size=20;indent=5;fillColor=#f5f5f5;fontColor=#333333;strokeColor=#666666;" vertex="1" parent="1">
          <mxGeometry x="680" y="40" width="80" height="440" as="geometry" />
        </mxCell>
        <mxCell id="xqfS3pqLxpIEDJ5l6RaL-17" value="FOOTER" style="rounded=0;whiteSpace=wrap;html=1;" vertex="1" parent="1">
          <mxGeometry x="160" y="440" width="520" height="40" as="geometry" />
        </mxCell>
      </root>
    </mxGraphModel>
  </diagram>
</mxfile>
